<svg width="311" height="106" viewBox="0 0 311 106" fill="none" xmlns="http://www.w3.org/2000/svg">
<path d="M0.752 53.312C0.752 43.328 2.912 34.448 7.232 26.672C11.552 18.8 17.552 12.704 25.232 8.384C33.008 3.96799 41.792 1.75999 51.584 1.75999C63.584 1.75999 73.856 4.92799 82.4 11.264C90.944 17.6 96.656 26.24 99.536 37.184H72.464C70.448 32.96 67.568 29.744 63.824 27.536C60.176 25.328 56 24.224 51.296 24.224C43.712 24.224 37.568 26.864 32.864 32.144C28.16 37.424 25.808 44.48 25.808 53.312C25.808 62.144 28.16 69.2 32.864 74.48C37.568 79.76 43.712 82.4 51.296 82.4C56 82.4 60.176 81.296 63.824 79.088C67.568 76.88 70.448 73.664 72.464 69.44H99.536C96.656 80.384 90.944 89.024 82.4 95.36C73.856 101.6 63.584 104.72 51.584 104.72C41.792 104.72 33.008 102.56 25.232 98.24C17.552 93.824 11.552 87.728 7.232 79.952C2.912 72.176 0.752 63.296 0.752 53.312ZM191.944 104L182.584 94.928C173.272 102.032 162.136 105.584 149.176 105.584C141.4 105.584 134.632 104.336 128.872 101.84C123.112 99.248 118.648 95.648 115.48 91.04C112.408 86.336 110.872 80.864 110.872 74.624C110.872 68.288 112.552 62.576 115.912 57.488C119.368 52.304 124.504 48.08 131.32 44.816C128.824 41.744 127.048 38.816 125.992 36.032C124.936 33.152 124.408 30.032 124.408 26.672C124.408 21.872 125.656 17.504 128.152 13.568C130.648 9.632 134.248 6.56 138.952 4.352C143.752 2.048 149.416 0.895997 155.944 0.895997C162.568 0.895997 168.184 2.096 172.792 4.49599C177.4 6.896 180.856 10.112 183.16 14.144C185.464 18.176 186.52 22.592 186.328 27.392H163.144C163.24 24.8 162.568 22.832 161.128 21.488C159.784 20.048 157.96 19.328 155.656 19.328C153.352 19.328 151.432 20 149.896 21.344C148.36 22.688 147.592 24.416 147.592 26.528C147.592 28.544 148.216 30.656 149.464 32.864C150.808 35.072 152.872 37.616 155.656 40.496L180.28 64.544C180.472 64.064 180.712 63.488 181 62.816C181.384 62.144 181.768 61.376 182.152 60.512L187.48 51.44H212.104L205.192 63.968C202.6 69.632 199.624 75.008 196.264 80.096L220.6 104H191.944ZM150.328 85.712C156.76 85.712 162.472 83.888 167.464 80.24L145 58.496C138.088 62.048 134.632 66.848 134.632 72.896C134.632 76.544 136.024 79.616 138.808 82.112C141.688 84.512 145.528 85.712 150.328 85.712ZM290.706 52.16C296.562 53.408 301.266 56.336 304.818 60.944C308.37 65.456 310.146 70.64 310.146 76.496C310.146 84.944 307.17 91.664 301.218 96.656C295.362 101.552 287.154 104 276.594 104H229.506V2.912H275.01C285.282 2.912 293.298 5.264 299.058 9.96799C304.914 14.672 307.842 21.056 307.842 29.12C307.842 35.072 306.258 40.016 303.09 43.952C300.018 47.888 295.89 50.624 290.706 52.16ZM254.13 43.808H270.258C274.29 43.808 277.362 42.944 279.474 41.216C281.682 39.392 282.786 36.752 282.786 33.296C282.786 29.84 281.682 27.2 279.474 25.376C277.362 23.552 274.29 22.64 270.258 22.64H254.13V43.808ZM272.274 84.128C276.402 84.128 279.57 83.216 281.778 81.392C284.082 79.472 285.234 76.736 285.234 73.184C285.234 69.632 284.034 66.848 281.634 64.832C279.33 62.816 276.114 61.808 271.986 61.808H254.13V84.128H272.274Z" fill="#F39F22"/>
</svg>
