<svg width="400" height="400" viewBox="0 0 400 400" fill="none" xmlns="http://www.w3.org/2000/svg">
<path fill-rule="evenodd" clip-rule="evenodd" d="M200 400C310.457 400 400 310.457 400 200C400 89.5431 310.457 0 200 0C89.5431 0 0 89.5431 0 200C0 310.457 89.5431 400 200 400ZM199.5 387C303.053 387 387 303.053 387 199.5C387 95.9466 303.053 12 199.5 12C95.9466 12 12 95.9466 12 199.5C12 303.053 95.9466 387 199.5 387Z" fill="#F39F22"/>
<path d="M44.752 199.312C44.752 189.328 46.912 180.448 51.232 172.672C55.552 164.8 61.552 158.704 69.232 154.384C77.008 149.968 85.792 147.76 95.584 147.76C107.584 147.76 117.856 150.928 126.4 157.264C134.944 163.6 140.656 172.24 143.536 183.184H116.464C114.448 178.96 111.568 175.744 107.824 173.536C104.176 171.328 100 170.224 95.296 170.224C87.712 170.224 81.568 172.864 76.864 178.144C72.16 183.424 69.808 190.48 69.808 199.312C69.808 208.144 72.16 215.2 76.864 220.48C81.568 225.76 87.712 228.4 95.296 228.4C100 228.4 104.176 227.296 107.824 225.088C111.568 222.88 114.448 219.664 116.464 215.44H143.536C140.656 226.384 134.944 235.024 126.4 241.36C117.856 247.6 107.584 250.72 95.584 250.72C85.792 250.72 77.008 248.56 69.232 244.24C61.552 239.824 55.552 233.728 51.232 225.952C46.912 218.176 44.752 209.296 44.752 199.312ZM235.944 250L226.584 240.928C217.272 248.032 206.136 251.584 193.176 251.584C185.4 251.584 178.632 250.336 172.872 247.84C167.112 245.248 162.648 241.648 159.48 237.04C156.408 232.336 154.872 226.864 154.872 220.624C154.872 214.288 156.552 208.576 159.912 203.488C163.368 198.304 168.504 194.08 175.32 190.816C172.824 187.744 171.048 184.816 169.992 182.032C168.936 179.152 168.408 176.032 168.408 172.672C168.408 167.872 169.656 163.504 172.152 159.568C174.648 155.632 178.248 152.56 182.952 150.352C187.752 148.048 193.416 146.896 199.944 146.896C206.568 146.896 212.184 148.096 216.792 150.496C221.4 152.896 224.856 156.112 227.16 160.144C229.464 164.176 230.52 168.592 230.328 173.392H207.144C207.24 170.8 206.568 168.832 205.128 167.488C203.784 166.048 201.96 165.328 199.656 165.328C197.352 165.328 195.432 166 193.896 167.344C192.36 168.688 191.592 170.416 191.592 172.528C191.592 174.544 192.216 176.656 193.464 178.864C194.808 181.072 196.872 183.616 199.656 186.496L224.28 210.544C224.472 210.064 224.712 209.488 225 208.816C225.384 208.144 225.768 207.376 226.152 206.512L231.48 197.44H256.104L249.192 209.968C246.6 215.632 243.624 221.008 240.264 226.096L264.6 250H235.944ZM194.328 231.712C200.76 231.712 206.472 229.888 211.464 226.24L189 204.496C182.088 208.048 178.632 212.848 178.632 218.896C178.632 222.544 180.024 225.616 182.808 228.112C185.688 230.512 189.528 231.712 194.328 231.712ZM334.706 198.16C340.562 199.408 345.266 202.336 348.818 206.944C352.37 211.456 354.146 216.64 354.146 222.496C354.146 230.944 351.17 237.664 345.218 242.656C339.362 247.552 331.154 250 320.594 250H273.506V148.912H319.01C329.282 148.912 337.298 151.264 343.058 155.968C348.914 160.672 351.842 167.056 351.842 175.12C351.842 181.072 350.258 186.016 347.09 189.952C344.018 193.888 339.89 196.624 334.706 198.16ZM298.13 189.808H314.258C318.29 189.808 321.362 188.944 323.474 187.216C325.682 185.392 326.786 182.752 326.786 179.296C326.786 175.84 325.682 173.2 323.474 171.376C321.362 169.552 318.29 168.64 314.258 168.64H298.13V189.808ZM316.274 230.128C320.402 230.128 323.57 229.216 325.778 227.392C328.082 225.472 329.234 222.736 329.234 219.184C329.234 215.632 328.034 212.848 325.634 210.832C323.33 208.816 320.114 207.808 315.986 207.808H298.13V230.128H316.274Z" fill="#F39F22"/>
<circle cx="200" cy="200" r="173" stroke="white" stroke-width="10"/>
</svg>
