<svg width="21" height="24" viewBox="0 0 21 24" fill="none" xmlns="http://www.w3.org/2000/svg">
<path fill-rule="evenodd" clip-rule="evenodd" d="M17.9664 8.95461C17.9664 13.9001 13.9445 17.9092 8.98321 17.9092C4.02192 17.9092 0 13.9001 0 8.95461C0 4.00912 4.02192 0 8.98321 0C13.9445 0 17.9664 4.00912 17.9664 8.95461ZM15.8105 9.04416C15.8105 12.7533 12.794 15.7601 9.07305 15.7601C5.35208 15.7601 2.33564 12.7533 2.33564 9.04416C2.33564 5.33504 5.35208 2.3282 9.07305 2.3282C12.794 2.3282 15.8105 5.33504 15.8105 9.04416ZM16.3697 16.2974L14.3731 17.8223L18.7433 23.5079C19.1661 24.058 19.9558 24.1625 20.5072 23.7414C21.0585 23.3203 21.1627 22.5331 20.7399 21.983L16.3697 16.2974Z" fill="black"/>
</svg>
